<svg width="1176" height="1188" viewBox="0 0 1176 1188" fill="none" xmlns="http://www.w3.org/2000/svg">
<path d="M934.238 81.7212H253.204C165.013 81.7212 81.7212 150.314 81.7212 270.353V941.587C81.7212 1034.68 155.214 1115.52 250.755 1115.52H936.688C1037.13 1115.52 1105.72 1032.23 1105.72 941.587V272.803C1105.72 169.913 1029.78 81.7212 934.238 81.7212Z" fill="#242424" fill-opacity="0.99"/>
<g filter="url(#filter1_f_26_2)">
<path d="M878.644 150H296.566C221.189 150 150 208.894 150 311.96V888.285C150 968.213 212.814 1037.62 294.472 1037.62H880.738C966.584 1037.62 1025.21 966.11 1025.21 888.285V314.063C1025.21 225.722 960.302 150 878.644 150Z" fill="#898989" fill-opacity="0.12"/>
</g>
<path d="M739.24 364.83C739.24 320.665 674.865 324.062 674.865 364.83V521.104C674.865 555.077 627.431 561.871 627.431 521.104V422.583C627.431 395.405 552.891 395.405 552.891 422.583V521.104C552.891 561.871 505.457 558.474 505.457 517.707V361.432C505.457 320.665 434.306 317.268 437.694 364.83L424.141 561.871C424.141 626.42 458.023 670.584 505.457 694.365C535.951 714.749 539.339 735.132 539.339 758.913V952.557C549.503 1006.91 637.595 1010.31 644.372 949.16V752.119C647.76 721.543 661.312 707.954 681.641 697.762C739.24 667.187 762.957 616.228 749.404 521.104L739.24 364.83Z" fill="#FFB23D" fill-opacity="0.8"/>
<path d="M590.709 172.594C596.667 218.279 610.572 248.073 654.27 261.977C666.188 265.95 674.133 267.936 686.051 267.936C674.133 267.936 666.188 269.922 654.27 273.895C610.572 287.799 596.667 317.593 590.709 363.278C584.75 317.593 570.846 287.799 527.147 273.895C515.23 269.922 507.284 267.936 495.367 267.936C507.284 267.936 515.23 265.95 527.147 261.977C570.846 248.073 584.75 218.279 590.709 172.594Z" fill="#348DFC" fill-opacity="0.8"/>
<defs>
<filter id="filter1_f_26_2" x="0" y="0" width="1175.21" height="1187.62" filterUnits="userSpaceOnUse" color-interpolation-filters="sRGB">
<feFlood flood-opacity="0" result="BackgroundImageFix"/>
<feBlend mode="normal" in="SourceGraphic" in2="BackgroundImageFix" result="shape"/>
<feGaussianBlur stdDeviation="75" result="effect1_foregroundBlur_26_2"/>
</filter>
</defs>
</svg>
