<svg width="1188" height="1188" viewBox="0 0 1188 1188" fill="none" xmlns="http://www.w3.org/2000/svg">
<g transform="translate(6 0)">
<path d="M739.24 364.83C739.24 320.665 674.865 324.062 674.865 364.83V521.104C674.865 555.077 627.431 561.871 627.431 521.104V422.583C627.431 395.405 552.892 395.405 552.892 422.583V521.104C552.892 561.871 505.457 558.474 505.457 517.707V361.432C505.457 320.665 434.306 317.268 437.694 364.83L424.141 561.872C424.141 626.42 458.023 670.584 505.457 694.365C535.951 714.749 539.339 735.132 539.339 758.913V952.557C549.503 1006.91 637.595 1010.31 644.372 949.16V752.119C647.76 721.543 661.312 707.954 681.641 697.762C739.24 667.187 762.957 616.228 749.404 521.104L739.24 364.83Z" fill="#EA9D29"/>
<path d="M590.709 172.594C596.667 218.279 610.572 248.073 654.27 261.977C666.188 265.95 674.133 267.936 686.051 267.936C674.133 267.936 666.188 269.922 654.27 273.895C610.572 287.799 596.667 317.593 590.709 363.278C584.75 317.593 570.846 287.799 527.147 273.895C515.229 269.922 507.284 267.936 495.367 267.936C507.284 267.936 515.229 265.95 527.147 261.977C570.846 248.073 584.75 218.279 590.709 172.594Z" fill="#348DFC"/>
</g>
</svg>
